HIERARCHY
ROOT Hips
{
	OFFSET 46.625801 6.466676 85.649696
	CHANNELS 6 Xposition Yposition Zposition Xrotation Yrotation Zrotation
	JOINT spine
	{
		OFFSET 0.000000 -0.393702 6.846367
		CHANNELS 3 Xrotation Yrotation Zrotation
		JOINT spine1
		{
			OFFSET 0.000000 -0.000001 9.496208
			CHANNELS 3 Xrotation Yrotation Zrotation
			JOINT spine2
			{
				OFFSET 0.000000 -0.000001 9.099091
				CHANNELS 3 Xrotation Yrotation Zrotation
				JOINT Neck
				{
					OFFSET 0.000000 -1.113784 23.361198
					CHANNELS 3 Xrotation Yrotation Zrotation
					JOINT Head
					{
						OFFSET 0.000000 -0.000001 7.058014
						CHANNELS 3 Xrotation Yrotation Zrotation
						End Site
						{
							OFFSET 0.000000 5.634187 17.084396
						}
					}
				}
				JOINT RightShoulder
				{
					OFFSET -3.831360 0.533490 9.826309
					CHANNELS 3 Xrotation Yrotation Zrotation
					JOINT RightArm
					{
						OFFSET 0.000000 -0.000002 12.888100
						CHANNELS 3 Xrotation Yrotation Zrotation
						JOINT RightArmRoll
						{
							OFFSET 0.000000 -0.000001 6.506165
							CHANNELS 3 Xrotation Yrotation Zrotation
							JOINT RightForeArm
							{
								OFFSET 0.000000 -0.000003 18.950104
								CHANNELS 3 Xrotation Yrotation Zrotation
								JOINT RightForeArmRoll
								{
									OFFSET 0.000000 -0.000001 7.300919
									CHANNELS 3 Xrotation Yrotation Zrotation
									JOINT RightHand
									{
										OFFSET 0.000000 -0.000002 14.651398
										CHANNELS 3 Xrotation Yrotation Zrotation
										End Site
										{
											OFFSET 0.000000 0.000000 0.100006
										}
									}
								}
							}
						}
					}
				}
				JOINT LeftShoulder
				{
					OFFSET 3.831360 0.533490 9.826309
					CHANNELS 3 Xrotation Yrotation Zrotation
					JOINT LeftArm
					{
						OFFSET 0.000000 -0.000002 12.888100
						CHANNELS 3 Xrotation Yrotation Zrotation
						JOINT LeftArmRoll
						{
							OFFSET 0.000000 -0.000001 6.506165
							CHANNELS 3 Xrotation Yrotation Zrotation
							JOINT LeftForeArm
							{
								OFFSET 0.000000 -0.000003 18.950104
								CHANNELS 3 Xrotation Yrotation Zrotation
								JOINT LeftForeArmRoll
								{
									OFFSET 0.000000 -0.000001 7.300919
									CHANNELS 3 Xrotation Yrotation Zrotation
									JOINT LeftHand
									{
										OFFSET 0.000000 -0.000002 14.651398
										CHANNELS 3 Xrotation Yrotation Zrotation
										End Site
										{
											OFFSET 0.000000 0.000000 0.100006
										}
									}
								}
							}
						}
					}
				}
			}
		}
	}
	JOINT RightUpLeg
	{
		OFFSET -6.068371 0.933477 -1.112778
		CHANNELS 3 Xrotation Yrotation Zrotation
		JOINT RightUpLegRoll
		{
			OFFSET 0.000000 -0.000003 17.179604
			CHANNELS 3 Xrotation Yrotation Zrotation
			JOINT RightLeg
			{
				OFFSET 0.000000 0.000004 -21.274300
				CHANNELS 3 Xrotation Yrotation Zrotation
				JOINT RightLegRoll
				{
					OFFSET 0.000000 -0.000004 21.343903
					CHANNELS 3 Xrotation Yrotation Zrotation
					JOINT RightFoot
					{
						OFFSET 0.000000 -0.000003 17.765198
						CHANNELS 3 Xrotation Yrotation Zrotation
						JOINT RightToeBase
						{
							OFFSET 0.000000 -0.000002 14.850807
							CHANNELS 3 Xrotation Yrotation Zrotation
							End Site
							{
								OFFSET 0.006294 0.829004 7.192123
							}
						}
					}
				}
			}
		}
	}
	JOINT LeftUpLeg
	{
		OFFSET 6.068371 0.933477 -1.112778
		CHANNELS 3 Xrotation Yrotation Zrotation
		JOINT LeftUpLegRoll
		{
			OFFSET 0.000000 -0.000003 17.179703
			CHANNELS 3 Xrotation Yrotation Zrotation
			JOINT LeftLeg
			{
				OFFSET 0.000000 -0.000003 21.274200
				CHANNELS 3 Xrotation Yrotation Zrotation
				JOINT LeftLegRoll
				{
					OFFSET 0.000000 -0.000003 21.541206
					CHANNELS 3 Xrotation Yrotation Zrotation
					JOINT LeftFoot
					{
						OFFSET 0.000000 -0.000003 17.567902
						CHANNELS 3 Xrotation Yrotation Zrotation
						JOINT LeftToeBase
						{
							OFFSET 0.000000 -0.000002 14.850800
							CHANNELS 3 Xrotation Yrotation Zrotation
							End Site
							{
								OFFSET -0.028210 0.829004 7.192123
							}
						}
					}
				}
			}
		}
	}
}
MOTION
Frames: 11
Frame Time: 0.041667
53.247200 -7.936484 86.581390 0.986795 -0.632861 -0.770607 -2.187274 -1.391536 1.059557 -0.343997 -2.828880 2.073631 1.301438 -2.803839 2.107361 7.490149 14.879796 -3.138003 9.159728 -12.064228 -2.974627 -16.318825 -52.677076 -19.171496 -84.498674 -102.109006 -52.498193 -0.000001 0.000001 0.000005 4.595220 -9.782906 -0.158803 -0.000003 0.000005 -3.005214 -5.000253 -7.998824 0.000150 -29.154796 72.398516 33.567508 -92.611662 113.241852 60.290763 -0.000001 -0.000008 0.000000 4.464884 11.069542 -1.127413 0.000002 -0.000008 3.000001 -5.000214 7.998754 -0.000166 -17.191702 -178.505846 -2.281189 -179.999991 0.000005 -1.118001 155.565714 -3.421343 -1.283150 0.000002 -0.000002 0.605805 72.864895 7.230151 0.844786 25.456873 -7.351024 -0.000002 -12.888591 -179.289378 1.867827 -0.000004 -0.000004 -1.208510 -24.663765 1.742102 1.033958 -0.000004 -0.000007 -0.802055 77.328410 -6.896441 -1.412853 25.464690 7.351638 -0.001250 
53.252998 -7.941538 86.574097 0.989728 -0.638468 -0.766631 -2.187327 -1.391626 1.059522 -0.344247 -2.828129 2.074124 1.301187 -2.803068 2.107853 7.445441 14.898125 -3.132570 9.172573 -12.066374 -2.975517 -16.304635 -52.673504 -19.153961 -84.357324 -102.177397 -52.419796 -0.000003 0.000001 0.000006 4.635130 -9.807915 -0.155575 -0.000001 0.000004 -3.005208 -5.000253 -7.998824 0.000152 -29.162452 72.401323 33.575735 -92.595823 113.279084 60.320331 -0.000001 -0.000007 0.000001 4.505389 11.094370 -1.129592 0.000003 -0.000006 3.000001 -5.000213 7.998755 -0.000167 -17.194060 -178.499167 -2.280731 -179.999991 0.000005 -1.118001 155.564156 -3.419484 -1.282419 0.000002 -0.000002 0.605805 72.866685 7.230010 0.847849 25.456882 -7.351025 -0.000002 -12.891215 -179.280609 1.874427 -0.000004 -0.000004 -1.208530 -24.659746 1.741032 1.033606 -0.000004 -0.000006 -0.802023 77.324872 -6.896430 -1.411967 25.464690 7.351638 -0.001250 
53.255600 -7.940777 86.580788 0.992544 -0.644079 -0.762584 -2.187387 -1.391746 1.059426 -0.344544 -2.827389 2.074544 1.300896 -2.802329 2.108261 7.400553 14.916551 -3.127117 9.185810 -12.068310 -2.976436 -16.290170 -52.669778 -19.136073 -84.219436 -102.245719 -52.342492 -0.000003 -0.000001 0.000007 4.677282 -9.831724 -0.152372 -0.000002 0.000005 -3.005211 -5.000252 -7.998825 0.000151 -29.170556 72.404390 33.584429 -92.581131 113.316752 60.350131 -0.000003 -0.000006 -0.000001 4.545379 11.118500 -1.131774 -0.000001 -0.000009 2.999996 -5.000217 7.998755 -0.000163 -17.196113 -178.492500 -2.280252 -179.999991 0.000005 -1.118001 155.562927 -3.416713 -1.282263 0.000003 -0.000002 0.605805 72.868392 7.229905 0.851024 25.456880 -7.351024 -0.000002 -12.893744 -179.270869 1.880714 -0.000004 -0.000004 -1.208530 -24.655730 1.740014 1.033258 -0.000005 -0.000007 -0.801975 77.321238 -6.896467 -1.410893 25.464692 7.351638 -0.001251 
53.255100 -7.939193 86.579086 0.995288 -0.649692 -0.758483 -2.187467 -1.391875 1.059279 -0.344874 -2.826670 2.074912 1.300565 -2.801598 2.108618 7.355538 14.935083 -3.121628 9.199343 -12.070133 -2.977366 -16.275475 -52.665984 -19.117904 -84.083939 -102.314000 -52.265847 -0.000002 0.000001 0.000004 4.721002 -9.854705 -0.149161 0.000001 0.000009 -3.005212 -5.000250 -7.998824 0.000152 -29.178927 72.407635 33.593408 -92.567150 113.354714 60.380013 -0.000003 -0.000006 0.000000 4.585039 11.142330 -1.133993 0.000003 -0.000008 2.999999 -5.000208 7.998756 -0.000164 -17.198068 -178.485848 -2.279761 -179.999991 0.000005 -1.118001 155.561793 -3.413956 -1.282092 0.000002 -0.000002 0.605805 72.870086 7.229802 0.854200 25.456877 -7.351025 -0.000002 -12.896370 -179.262099 1.887151 -0.000004 -0.000004 -1.208530 -24.651814 1.739033 1.032917 -0.000005 -0.000006 -0.801916 77.317680 -6.896434 -1.409906 25.464690 7.351639 -0.001250 
53.257401 -7.938314 86.583488 0.997989 -0.655305 -0.754354 -2.187557 -1.392025 1.059111 -0.345225 -2.825969 2.075248 1.300214 -2.800880 2.108945 7.310446 14.953704 -3.116113 9.213034 -12.071855 -2.978309 -16.260705 -52.662186 -19.099644 -83.950497 -102.382330 -52.190237 -0.000003 0.000001 0.000008 4.765618 -9.877211 -0.145944 0.000001 0.000008 -3.005206 -5.000251 -7.998824 0.000150 -29.187482 72.410968 33.602601 -92.553906 113.392902 60.410291 -0.000002 -0.000005 0.000003 4.624493 11.165856 -1.136229 0.000003 -0.000009 2.999997 -5.000211 7.998753 -0.000167 -17.199933 -178.478198 -2.279556 -179.999991 0.000005 -1.118001 155.560646 -3.412095 -1.282328 0.000002 -0.000002 0.605805 72.871691 7.229735 0.857385 25.456877 -7.351024 -0.000001 -12.898898 -179.252345 1.893327 -0.000004 -0.000004 -1.208520 -24.647897 1.738087 1.032583 -0.000006 -0.000007 -0.801850 77.314019 -6.896424 -1.408828 25.464694 7.351639 -0.001250 
53.256802 -7.947196 86.585190 1.000679 -0.660919 -0.750217 -2.187643 -1.392165 1.058934 -0.345580 -2.825259 2.075575 1.299862 -2.800160 2.109260 7.265328 14.972323 -3.110573 9.226770 -12.073570 -2.979261 -16.245873 -52.658313 -19.081305 -83.817746 -102.450857 -52.114944 -0.000001 -0.000001 0.000004 4.810461 -9.899601 -0.142694 0.000000 0.000006 -3.005212 -5.000252 -7.998824 0.000150 -29.196187 72.414383 33.611931 -92.540430 113.431199 60.440310 -0.000000 -0.000007 -0.000001 4.663916 11.189272 -1.138501 0.000003 -0.000008 2.999999 -5.000215 7.998755 -0.000164 -17.201787 -178.471545 -2.279063 -179.999991 0.000005 -1.118001 155.559635 -3.409342 -1.282151 0.000002 -0.000003 0.605805 72.873290 7.229672 0.860571 25.456882 -7.351025 -0.000002 -12.901426 -179.243589 1.899723 -0.000004 -0.000004 -1.208510 -24.643883 1.737144 1.032246 -0.000004 -0.000006 -0.801783 77.310378 -6.896438 -1.407754 25.464687 7.351638 -0.001251 
53.259201 -7.944675 86.586304 1.003389 -0.666531 -0.746095 -2.187727 -1.392305 1.058777 -0.345925 -2.824549 2.075922 1.299511 -2.799432 2.109598 7.220242 14.990933 -3.105006 9.240419 -12.075291 -2.980212 -16.231123 -52.654512 -19.063077 -83.685636 -102.519568 -52.040717 -0.000001 0.000000 0.000006 4.854864 -9.922229 -0.139394 0.000001 0.000007 -3.005212 -5.000251 -7.998821 0.000152 -29.204724 72.417723 33.621104 -92.526585 113.469270 60.470035 -0.000003 -0.000007 -0.000002 4.703437 11.212879 -1.140807 0.000005 -0.000008 3.000000 -5.000214 7.998756 -0.000166 -17.203746 -178.464852 -2.278577 -179.999991 0.000005 -1.118001 155.558474 -3.407483 -1.282387 0.000003 -0.000002 0.605805 72.874908 7.229602 0.863757 25.456875 -7.351024 -0.000002 -12.903955 -179.233849 1.905908 -0.000002 -0.000004 -1.208500 -24.639969 1.736189 1.031910 -0.000005 -0.000006 -0.801719 77.306731 -6.896447 -1.406676 25.464692 7.351639 -0.001250 
53.260101 -7.944717 86.588791 1.006148 -0.672141 -0.742007 -2.187807 -1.392435 1.058640 -0.346246 -2.823818 2.076311 1.299190 -2.798702 2.109976 7.175230 15.009436 -3.099397 9.253871 -12.077117 -2.981134 -16.216502 -52.650698 -19.045004 -83.553745 -102.588478 -51.967972 -0.000003 0.000000 0.000003 4.898172 -9.945447 -0.136036 -0.000003 0.000008 -3.005209 -5.000252 -7.998825 0.000151 -29.213136 72.420953 33.630123 -92.512112 113.507246 60.499623 0.000001 -0.000007 0.000000 4.743222 11.236779 -1.143158 0.000007 -0.000008 3.000000 -5.000214 7.998756 -0.000161 -17.205701 -178.458199 -2.278088 -179.999991 0.000005 -1.118001 155.557340 -3.404726 -1.282229 0.000002 -0.000002 0.605805 72.876513 7.229535 0.866943 25.456880 -7.351024 -0.000001 -12.906582 -179.225079 1.912362 -0.000003 -0.000004 -1.208500 -24.636053 1.735197 1.031570 -0.000004 -0.000006 -0.801663 77.303077 -6.896460 -1.405698 25.464690 7.351638 -0.001250 
53.261505 -7.946894 86.583374 1.009005 -0.677749 -0.737978 -2.187857 -1.392545 1.058564 -0.346530 -2.823077 2.076751 1.298909 -2.797951 2.110404 7.130355 15.027932 -3.093787 9.266983 -12.079150 -2.982037 -16.202138 -52.647043 -19.027242 -83.420843 -102.657723 -51.895842 -0.000001 0.000002 0.000004 4.939682 -9.969585 -0.132603 -0.000002 0.000006 -3.005212 -5.000251 -7.998825 0.000151 -29.220949 72.423849 33.638528 -92.496560 113.544894 60.528761 -0.000001 -0.000009 -0.000001 4.783418 11.261151 -1.145568 0.000003 -0.000006 3.000002 -5.000216 7.998755 -0.000164 -17.207868 -178.450563 -2.277913 -179.999991 0.000005 -1.118001 155.555919 -3.401949 -1.282070 0.000002 -0.000002 0.605805 72.878296 7.229396 0.870107 25.456875 -7.351024 -0.000002 -12.909115 -179.215339 1.918674 -0.000004 -0.000004 -1.208510 -24.632039 1.734162 1.031221 -0.000005 -0.000006 -0.801619 77.299532 -6.896446 -1.404714 25.464694 7.351639 -0.001250 
53.265400 -7.950976 86.586601 1.011983 -0.683351 -0.734028 -2.187896 -1.392625 1.058550 -0.346759 -2.822319 2.077275 1.298677 -2.797172 2.110915 7.085661 15.046118 -3.088121 9.279656 -12.081392 -2.982910 -16.188119 -52.643546 -19.009914 -83.286452 -102.727316 -51.824856 -0.000001 0.000000 0.000006 4.978764 -9.995111 -0.129069 0.000000 0.000006 -3.005211 -5.000251 -7.998823 0.000150 -29.228469 72.426561 33.646594 -92.479771 113.582009 60.557830 -0.000002 -0.000007 -0.000001 4.824174 11.286115 -1.148024 0.000002 -0.000005 3.000003 -5.000213 7.998754 -0.000169 -17.210325 -178.443910 -2.277458 -179.999991 0.000005 -1.118001 155.554362 -3.400091 -1.282335 0.000002 -0.000002 0.605805 72.880092 7.229252 0.873269 25.456882 -7.351025 -0.000002 -12.911741 -179.206583 1.925297 -0.000003 -0.000004 -1.208540 -24.628018 1.733063 1.030866 -0.000004 -0.000006 -0.801593 77.296015 -6.896474 -1.403729 25.464692 7.351638 -0.001250 
53.267502 -7.953844 86.587296 1.015111 -0.688949 -0.730178 -2.187896 -1.392665 1.058639 -0.346919 -2.821518 2.077901 1.298517 -2.796362 2.111539 7.041204 15.064184 -3.082438 9.291762 -12.083954 -2.983722 -16.174499 -52.640196 -18.993079 -83.149903 -102.797482 -51.754929 -0.000001 -0.000000 0.000005 5.014706 -10.022276 -0.125431 0.000001 0.000008 -3.005208 -5.000253 -7.998824 0.000150 -29.235255 72.428822 33.653896 -92.461008 113.618599 60.586011 -0.000000 -0.000006 -0.000000 4.865655 11.312049 -1.150556 0.000006 -0.000006 3.000001 -5.000213 7.998754 -0.000167 -17.213077 -178.437230 -2.277016 -179.999991 0.000005 -1.118001 155.552531 -3.397304 -1.282200 0.000002 -0.000002 0.605805 72.882087 7.229063 0.876212 25.456878 -7.351024 -0.000002 -12.914372 -179.196829 1.931836 -0.000004 -0.000004 -1.208590 -24.623998 1.731882 1.030501 -0.000005 -0.000006 -0.801589 77.292586 -6.896476 -1.402740 25.464695 7.351639 -0.001250 
